<mxfile host="Electron" modified="2024-05-07T08:02:08.886Z" agent="Mozilla/5.0 (X11; Linux x86_64) AppleWebKit/537.36 (KHTML, like Gecko) draw.io/24.2.5 Chrome/120.0.6099.109 Electron/28.1.0 Safari/537.36" etag="nxehV0GyylGDc7L4ktMG" version="24.2.5" type="device">
  <diagram id="pDn8dzBl-16yXPNHU6tY" name="Page-1">
    <mxGraphModel dx="2074" dy="1239" grid="1" gridSize="10" guides="1" tooltips="1" connect="1" arrows="1" fold="1" page="1" pageScale="1" pageWidth="850" pageHeight="1100" math="0" shadow="0">
      <root>
        <mxCell id="0" />
        <mxCell id="1" parent="0" />
        <mxCell id="33WVNXEW1kgjeUYGu9OC-1" value="default_kinematics.yaml" style="rounded=0;whiteSpace=wrap;html=1;fillColor=#d5e8d4;strokeColor=#82b366;strokeWidth=1;" parent="1" vertex="1">
          <mxGeometry x="130" y="110" width="160" height="40" as="geometry" />
        </mxCell>
        <mxCell id="33WVNXEW1kgjeUYGu9OC-2" value="joint_limits.yaml" style="rounded=0;whiteSpace=wrap;html=1;fillColor=#d5e8d4;strokeColor=#82b366;strokeWidth=1;" parent="1" vertex="1">
          <mxGeometry x="130" y="160" width="160" height="40" as="geometry" />
        </mxCell>
        <mxCell id="33WVNXEW1kgjeUYGu9OC-3" value="physical_parameters.yaml" style="rounded=0;whiteSpace=wrap;html=1;fillColor=#d5e8d4;strokeColor=#82b366;strokeWidth=1;" parent="1" vertex="1">
          <mxGeometry x="130" y="210" width="160" height="40" as="geometry" />
        </mxCell>
        <mxCell id="33WVNXEW1kgjeUYGu9OC-4" value="visual_parameters.yaml" style="rounded=0;whiteSpace=wrap;html=1;fillColor=#82B366;strokeColor=#FFE599;strokeWidth=3;" parent="1" vertex="1">
          <mxGeometry x="130" y="260" width="160" height="40" as="geometry" />
        </mxCell>
        <mxCell id="33WVNXEW1kgjeUYGu9OC-13" style="edgeStyle=orthogonalEdgeStyle;rounded=0;orthogonalLoop=1;jettySize=auto;html=1;exitX=0.5;exitY=1;exitDx=0;exitDy=0;entryX=0;entryY=0.5;entryDx=0;entryDy=0;endArrow=none;endFill=0;" parent="1" source="33WVNXEW1kgjeUYGu9OC-5" target="33WVNXEW1kgjeUYGu9OC-1" edge="1">
          <mxGeometry relative="1" as="geometry" />
        </mxCell>
        <mxCell id="33WVNXEW1kgjeUYGu9OC-15" style="edgeStyle=orthogonalEdgeStyle;rounded=0;orthogonalLoop=1;jettySize=auto;html=1;exitX=0.5;exitY=1;exitDx=0;exitDy=0;entryX=0;entryY=0.5;entryDx=0;entryDy=0;endArrow=none;endFill=0;" parent="1" source="33WVNXEW1kgjeUYGu9OC-5" target="33WVNXEW1kgjeUYGu9OC-2" edge="1">
          <mxGeometry relative="1" as="geometry" />
        </mxCell>
        <mxCell id="33WVNXEW1kgjeUYGu9OC-16" style="edgeStyle=orthogonalEdgeStyle;rounded=0;orthogonalLoop=1;jettySize=auto;html=1;exitX=0.5;exitY=1;exitDx=0;exitDy=0;entryX=0;entryY=0.5;entryDx=0;entryDy=0;endArrow=none;endFill=0;" parent="1" source="33WVNXEW1kgjeUYGu9OC-5" target="33WVNXEW1kgjeUYGu9OC-3" edge="1">
          <mxGeometry relative="1" as="geometry" />
        </mxCell>
        <mxCell id="33WVNXEW1kgjeUYGu9OC-17" style="edgeStyle=orthogonalEdgeStyle;rounded=0;orthogonalLoop=1;jettySize=auto;html=1;exitX=0.5;exitY=1;exitDx=0;exitDy=0;entryX=0;entryY=0.5;entryDx=0;entryDy=0;endArrow=none;endFill=0;" parent="1" source="33WVNXEW1kgjeUYGu9OC-5" target="33WVNXEW1kgjeUYGu9OC-4" edge="1">
          <mxGeometry relative="1" as="geometry" />
        </mxCell>
        <mxCell id="33WVNXEW1kgjeUYGu9OC-5" value="UR10e" style="rounded=1;whiteSpace=wrap;html=1;" parent="1" vertex="1">
          <mxGeometry x="60" y="60" width="80" height="40" as="geometry" />
        </mxCell>
        <mxCell id="33WVNXEW1kgjeUYGu9OC-9" style="edgeStyle=orthogonalEdgeStyle;rounded=0;orthogonalLoop=1;jettySize=auto;html=1;exitX=0.5;exitY=1;exitDx=0;exitDy=0;entryX=0;entryY=0.5;entryDx=0;entryDy=0;endArrow=none;endFill=0;" parent="1" source="33WVNXEW1kgjeUYGu9OC-6" target="33WVNXEW1kgjeUYGu9OC-5" edge="1">
          <mxGeometry relative="1" as="geometry" />
        </mxCell>
        <mxCell id="33WVNXEW1kgjeUYGu9OC-6" value="config" style="rounded=1;whiteSpace=wrap;html=1;" parent="1" vertex="1">
          <mxGeometry width="80" height="40" as="geometry" />
        </mxCell>
        <mxCell id="33WVNXEW1kgjeUYGu9OC-21" style="edgeStyle=orthogonalEdgeStyle;rounded=0;orthogonalLoop=1;jettySize=auto;html=1;exitX=0.5;exitY=1;exitDx=0;exitDy=0;entryX=0;entryY=0.5;entryDx=0;entryDy=0;endArrow=none;endFill=0;" parent="1" source="33WVNXEW1kgjeUYGu9OC-19" target="33WVNXEW1kgjeUYGu9OC-20" edge="1">
          <mxGeometry relative="1" as="geometry" />
        </mxCell>
        <mxCell id="33WVNXEW1kgjeUYGu9OC-30" style="edgeStyle=orthogonalEdgeStyle;rounded=0;orthogonalLoop=1;jettySize=auto;html=1;exitX=0.5;exitY=1;exitDx=0;exitDy=0;entryX=0;entryY=0.5;entryDx=0;entryDy=0;endArrow=none;endFill=0;" parent="1" source="33WVNXEW1kgjeUYGu9OC-19" target="33WVNXEW1kgjeUYGu9OC-27" edge="1">
          <mxGeometry relative="1" as="geometry" />
        </mxCell>
        <mxCell id="33WVNXEW1kgjeUYGu9OC-31" style="edgeStyle=orthogonalEdgeStyle;rounded=0;orthogonalLoop=1;jettySize=auto;html=1;exitX=0.5;exitY=1;exitDx=0;exitDy=0;entryX=0;entryY=0.5;entryDx=0;entryDy=0;endArrow=none;endFill=0;" parent="1" source="33WVNXEW1kgjeUYGu9OC-19" target="33WVNXEW1kgjeUYGu9OC-28" edge="1">
          <mxGeometry relative="1" as="geometry" />
        </mxCell>
        <mxCell id="33WVNXEW1kgjeUYGu9OC-19" value="urdf" style="rounded=1;whiteSpace=wrap;html=1;" parent="1" vertex="1">
          <mxGeometry x="320" width="80" height="40" as="geometry" />
        </mxCell>
        <mxCell id="33WVNXEW1kgjeUYGu9OC-23" style="edgeStyle=orthogonalEdgeStyle;rounded=0;orthogonalLoop=1;jettySize=auto;html=1;exitX=0.5;exitY=1;exitDx=0;exitDy=0;entryX=0;entryY=0.5;entryDx=0;entryDy=0;endArrow=none;endFill=0;" parent="1" source="33WVNXEW1kgjeUYGu9OC-20" target="33WVNXEW1kgjeUYGu9OC-22" edge="1">
          <mxGeometry relative="1" as="geometry" />
        </mxCell>
        <mxCell id="33WVNXEW1kgjeUYGu9OC-20" value="inc" style="rounded=1;whiteSpace=wrap;html=1;" parent="1" vertex="1">
          <mxGeometry x="380" y="60" width="80" height="40" as="geometry" />
        </mxCell>
        <mxCell id="33WVNXEW1kgjeUYGu9OC-22" value="ur_common.xacro" style="rounded=0;whiteSpace=wrap;html=1;fillColor=#e1d5e7;strokeColor=#82B366;strokeWidth=3;" parent="1" vertex="1">
          <mxGeometry x="450" y="110" width="160" height="40" as="geometry" />
        </mxCell>
        <mxCell id="33WVNXEW1kgjeUYGu9OC-27" value="ur.urdf.xacro" style="rounded=0;whiteSpace=wrap;html=1;fillColor=none;strokeColor=#00CCCC;strokeWidth=3;" parent="1" vertex="1">
          <mxGeometry x="380" y="160" width="160" height="40" as="geometry" />
        </mxCell>
        <mxCell id="33WVNXEW1kgjeUYGu9OC-28" value="ur_macro.xacro" style="rounded=0;whiteSpace=wrap;html=1;fillColor=#00CCCC;strokeColor=#E1D5E7;strokeWidth=3;" parent="1" vertex="1">
          <mxGeometry x="380" y="210" width="160" height="40" as="geometry" />
        </mxCell>
        <mxCell id="33WVNXEW1kgjeUYGu9OC-37" style="edgeStyle=orthogonalEdgeStyle;rounded=0;orthogonalLoop=1;jettySize=auto;html=1;exitX=0.5;exitY=1;exitDx=0;exitDy=0;entryX=0;entryY=0.5;entryDx=0;entryDy=0;endArrow=none;endFill=0;" parent="1" source="33WVNXEW1kgjeUYGu9OC-32" target="33WVNXEW1kgjeUYGu9OC-33" edge="1">
          <mxGeometry relative="1" as="geometry" />
        </mxCell>
        <mxCell id="33WVNXEW1kgjeUYGu9OC-32" value="meshes" style="rounded=1;whiteSpace=wrap;html=1;fillColor=#fff2cc;strokeColor=#d6b656;" parent="1" vertex="1">
          <mxGeometry x="640" width="80" height="40" as="geometry" />
        </mxCell>
        <mxCell id="33WVNXEW1kgjeUYGu9OC-40" style="edgeStyle=orthogonalEdgeStyle;rounded=0;orthogonalLoop=1;jettySize=auto;html=1;exitX=0.5;exitY=1;exitDx=0;exitDy=0;entryX=0;entryY=0.5;entryDx=0;entryDy=0;endArrow=none;endFill=0;" parent="1" source="33WVNXEW1kgjeUYGu9OC-33" target="33WVNXEW1kgjeUYGu9OC-35" edge="1">
          <mxGeometry relative="1" as="geometry" />
        </mxCell>
        <mxCell id="33WVNXEW1kgjeUYGu9OC-41" style="edgeStyle=orthogonalEdgeStyle;rounded=0;orthogonalLoop=1;jettySize=auto;html=1;exitX=0.5;exitY=1;exitDx=0;exitDy=0;entryX=0;entryY=0.5;entryDx=0;entryDy=0;endArrow=none;endFill=0;" parent="1" source="33WVNXEW1kgjeUYGu9OC-33" target="33WVNXEW1kgjeUYGu9OC-34" edge="1">
          <mxGeometry relative="1" as="geometry">
            <Array as="points">
              <mxPoint x="740" y="130" />
            </Array>
          </mxGeometry>
        </mxCell>
        <mxCell id="33WVNXEW1kgjeUYGu9OC-33" value="ur10e" style="rounded=1;whiteSpace=wrap;html=1;fillColor=#fff2cc;strokeColor=#d6b656;" parent="1" vertex="1">
          <mxGeometry x="700" y="60" width="80" height="40" as="geometry" />
        </mxCell>
        <mxCell id="33WVNXEW1kgjeUYGu9OC-34" value="collision" style="rounded=1;whiteSpace=wrap;html=1;fillColor=#fff2cc;strokeColor=#d6b656;" parent="1" vertex="1">
          <mxGeometry x="760" y="110" width="80" height="40" as="geometry" />
        </mxCell>
        <mxCell id="33WVNXEW1kgjeUYGu9OC-35" value="visual" style="rounded=1;whiteSpace=wrap;html=1;fillColor=#fff2cc;strokeColor=#d6b656;" parent="1" vertex="1">
          <mxGeometry x="760" y="160" width="80" height="40" as="geometry" />
        </mxCell>
        <mxCell id="33WVNXEW1kgjeUYGu9OC-46" value="includes / references" style="edgeStyle=orthogonalEdgeStyle;rounded=0;orthogonalLoop=1;jettySize=auto;html=1;exitX=1;exitY=0.5;exitDx=0;exitDy=0;entryX=0;entryY=0.5;entryDx=0;entryDy=0;endArrow=classic;endFill=1;" parent="1" source="33WVNXEW1kgjeUYGu9OC-44" target="33WVNXEW1kgjeUYGu9OC-45" edge="1">
          <mxGeometry relative="1" as="geometry" />
        </mxCell>
        <mxCell id="33WVNXEW1kgjeUYGu9OC-44" value="" style="rounded=0;whiteSpace=wrap;html=1;strokeColor=#82B366;strokeWidth=3;fillColor=none;" parent="1" vertex="1">
          <mxGeometry x="20" y="320" width="30" height="30" as="geometry" />
        </mxCell>
        <mxCell id="33WVNXEW1kgjeUYGu9OC-45" value="" style="rounded=0;whiteSpace=wrap;html=1;strokeColor=none;strokeWidth=3;fillColor=#82B366;" parent="1" vertex="1">
          <mxGeometry x="210" y="320" width="30" height="30" as="geometry" />
        </mxCell>
      </root>
    </mxGraphModel>
  </diagram>
</mxfile>
